<svg version="1" xmlns="http://www.w3.org/2000/svg" width="1066.667" height="1066.667" viewBox="0 0 800.000000 800.000000"><path d="M383.5 65.1c-76.9 8.8-95.6 12.2-128.8 23.3-8.9 3-26.1 8.4-38.2 12.1-40.1 12.1-68 24.7-89.5 40.5-3.6 2.6-14.1 9.8-23.5 16-10.9 7.3-19.5 13.9-24 18.4-3.9 3.9-10 9.9-13.7 13.3-3.8 3.5-7.8 8.4-9.3 11.2-2.5 5-2.5 5.1-2.5 32.6 0 15.1-.4 27.5-.8 27.5-1.1 0-3.2 6-3.2 9.1 0 3.1-1.4 5.1-5.9 8.4-1.9 1.4-3.3 2.5-3 2.6.2 0 6 1 12.9 2.2l12.4 2.2 3.1 13.2c1.6 7.2 3.3 13.5 3.7 13.8.4.4 7.2-.7 15.2-2.5l14.6-3.2 5.2 3.2 5.2 3.2 4.3-2.1 4.4-2.1 7.4 4.2 7.4 4.3 1.7 7c2.5 10.5 2.4 10.4 8.3 3.6 2.9-3.3 7.1-7.5 9.3-9.3l4.1-3.2 2.2 2.8c1.2 1.6 2.5 2.4 2.7 2 .3-.5 1.3-5.1 2.3-10.2 1-5.1 2.2-9.2 2.9-9.2.6 0 11.6 2.3 24.4 5.1 20.3 4.3 27.8 5.4 56.4 8.2l33 3.2 24.5-2 24.5-2.1 1.8 4.1c.9 2.2 2.8 6.8 4.1 10.2 1.3 3.5 2.7 6.3 3 6.3.4 0 4.4-4.2 8.9-9.3l8.2-9.2 7.6-1.1 7.7-1.2 12.6 6.5 12.5 6.6 14.5-8.4c12.7-7.3 29.2-14.9 32.3-14.9.6 0 5.8 4.7 11.6 10.5l10.4 10.4 6.5-4.6c3.6-2.6 8.4-5.9 10.6-7.4 3.2-2.3 5.8-3.1 13.5-4l9.6-1.1L529 312c11.2 3.4 21.1 6.2 21.9 6.2.9.1 9.1-2.2 18.3-5.1 16.5-5.1 16.8-5.2 20-3.5 1.8.9 4.6 2.6 6.1 3.8 2.8 2 12.8 16.2 20.2 28.5 2.6 4.3 4 5.9 4.5 5 .4-.8 1.5-5.5 2.5-10.5l1.7-9.2 11.1-4.1c6.2-2.2 11.5-3.7 11.8-3.3.3.4 1.4 5.6 2.3 11.7 1.6 9.9 10.9 45 12.5 46.7.3.4.2-6.2-.3-14.5l-.8-15.3 4.1-8.2c4.1-8.1 4.1-8.2 4.1-19.3 0-11 0-11.1 2.3-10.6 7.8 1.9 17.5 1.8 25.2-.2 4.4-1.1 13-2.5 19.1-3.1l11-1.1 7.1 4c3.8 2.3 7.3 4.1 7.7 4.1.4 0 3.3-1.8 6.5-4 4.1-2.7 8.5-4.6 14.5-6.1 4.8-1.2 8.5-2.3 8.3-2.5-.2-.2-25.3-.8-55.8-1.4-53.7-.9-103.3-2-195.9-4-24.5-.5-83-1.4-130-2-47-.5-109.8-1.5-139.5-2.1-60.7-1.2-57.8-.9-103.3-10.5l-26.3-5.5-13.6-8.4c-7.6-4.7-14-9-14.4-9.7-.4-.7-3.9-10.5-7.8-21.7L77 215.8l9.5-18.3c9.7-18.6 10.4-19.5 16-19.5 1.7 0 1.8.2.5 1.1-1.1.7-.4.8 2.4.3 2.9-.5 3.7-.4 3.1.5-.5.9.3 1 3 .5 2.8-.5 3.6-.4 3 .5-.5.9.3 1 3 .5 2.8-.5 3.6-.4 3 .5-.5.9.3 1.1 3.2.6 2.9-.5 3.5-.4 2.3.5-1.2.9-.5 1 3 .5 3.3-.5 4.1-.3 3 .5-1.1.8-.3.9 3 .4 3.4-.4 4.1-.3 3 .6-1.2.8-.6.9 2.4.4 2.9-.5 3.7-.4 3.1.5-.5.9.3 1 3 .5 2.8-.5 3.6-.4 3 .5-.5.9.3 1.1 3.2.6 2.9-.5 3.5-.4 2.3.5-1.2.9-.5 1 3 .5 3.3-.5 4.1-.3 3 .5-1.1.8-.3.9 3 .4 3.4-.4 4.1-.3 3 .6-1.2.8-.6.9 2.4.4 2.9-.5 3.7-.4 3.1.5-.5.9.3 1 3 .5 2.8-.5 3.6-.4 3 .5-.5.9.3 1 3 .5 2.8-.5 3.6-.4 3 .5-.5.9.3 1.1 3.2.6 2.9-.5 3.5-.4 2.3.5-1.2.9-.5 1 3 .5 3.3-.5 4.1-.3 3 .5-1.1.8-.3.9 3 .4 3.4-.4 4.1-.3 3 .6-1.2.8-.6.9 2.4.4 2.9-.5 3.7-.4 3.1.5-.5.9.3 1 3 .5 2.8-.5 3.6-.4 3 .5-.5.9.3 1.1 3.2.6 2.9-.5 3.5-.4 2.3.5-1.2.9-.5 1 3 .5 3.3-.5 4.1-.3 3 .5-1.1.8-.3.9 3 .4 3.4-.4 4.1-.3 3 .6-1.2.8-.6.9 2.4.4 2.9-.5 3.7-.4 3.1.5-.5.9.3 1 3 .5 2.8-.5 3.6-.4 3 .5-.5.9.3 1.1 3.2.6 2.9-.5 3.5-.4 2.3.5-1.2.9-.5 1 3 .5 3.4-.5 4.1-.4 3 .5-1.1.9-.4 1 3 .5s4.1-.3 3 .5c-1.1.8-.6.9 2.4.4 2.9-.5 3.7-.4 3.1.5-.5.9.3 1 3 .5 2.8-.5 3.6-.4 3 .5-.5.9.3 1 3 .5 2.9-.5 3.6-.4 3 .6-.6.9.1 1 2.6.5 4.4-.9 4.4-1 3.1-4-.7-1.4-1.2-3.1-1.2-3.8 0-1 13-6.7 15.3-6.7.4 0 .7 2.9.7 6.4v6.3l-6.7.7c-3.8.4-7.5 1.1-8.3 1.7-1.1.7-.2.8 3 .4 3.3-.5 4.1-.3 3 .5-1.1.8-.3.9 3 .4 3.4-.4 4.1-.3 3 .6-1.2.8-.6.9 2.4.4 2.9-.5 3.7-.4 3.1.5-.5.9.3 1 3 .5 2.8-.5 3.6-.4 3 .5-.5.9.3 1.1 3.2.6 2.9-.5 3.5-.4 2.3.5-1.2.9-.5 1 3 .5 3.3-.5 4.1-.3 3 .5-1.1.8-.3.9 3 .4 3.4-.4 4.1-.3 3 .6-1.2.8-.6.9 2.4.4 2.9-.5 3.7-.4 3.1.5-.5.9.3 1 3 .5 2.8-.5 3.6-.4 3 .5-.5.9.3 1 3 .5 2.8-.5 3.6-.4 3 .5-.5.9.3 1.1 3.2.6 2.9-.5 3.5-.4 2.3.5-1.2.9-.5 1 3 .5 3.3-.5 4.1-.3 3 .5-1.1.8-.3.9 3 .4 3.4-.4 4.1-.3 3 .6-1.2.8-.6.9 2.4.4 2.9-.5 3.7-.4 3.1.5-.5.9.3 1 3 .5 2.8-.5 3.6-.4 3 .5-.5.9.3 1.1 3.2.6 2.9-.5 3.5-.4 2.3.5-1.2.9-.5 1 3 .5 3.3-.5 4.1-.3 3 .5-1.1.8-.3.9 3 .4 3.4-.4 4.1-.3 3 .6-1.2.8-.6.9 2.4.4 2.9-.5 3.7-.4 3.1.5-.5.9.3 1 3 .5 2.8-.5 3.6-.4 3 .5-.5.9.3 1 3 .5 2.8-.5 3.6-.4 3 .5-.5.9.3 1.1 3.2.6 2.9-.5 3.5-.4 2.3.5-1.2.9-.5 1 3 .5 3.3-.5 4.1-.3 3 .5-1.1.8-.3.9 3 .4 3.4-.4 4.1-.3 3 .6-1.2.8-.6.9 2.4.4 2.9-.5 3.7-.4 3.1.5-.5.9.3 1 3 .5 2.8-.5 3.6-.4 3 .5-.5.9.3 1.1 3.2.6 2.9-.5 3.5-.4 2.3.5-1.2.9-.5 1 3 .5 3.3-.5 4.1-.3 3 .5-1.1.8-.3.9 3 .4 3.4-.4 4.1-.3 3 .6-1.2.8-.6.9 2.4.4 2.9-.5 3.7-.4 3.1.5-.5.9.3 1 3 .5 2.8-.5 3.6-.4 3 .5-.5.9.3 1 3 .5 2.8-.5 3.6-.4 3 .5-.5.9.3 1.1 3.2.6 2.9-.5 3.5-.4 2.3.5-1.2.9-.5 1 3 .5 3.3-.5 4.1-.3 3 .5-1.1.8-.3.9 3 .4 3.4-.4 4.1-.3 3 .6-1.2.8-.6.9 2.4.4 2.9-.5 3.7-.4 3.1.5-.5.9.3 1 3 .5 2.8-.5 3.6-.4 3 .5-.5.9.3 1.1 3.2.6 2.9-.5 3.5-.4 2.3.5-1.2.9-.5 1 3 .5 3.3-.5 4.1-.3 3 .5-1.1.8-.3.9 3 .4 3.4-.4 4.1-.3 3 .6-1.2.8-.6.9 2.4.4 2.9-.5 3.7-.4 3.1.5-.5.9.3 1 3 .5 2.8-.5 3.6-.4 3 .5-.5.9.3 1 3 .5 2.8-.5 3.6-.4 3 .5-.5.9.3 1.1 3.2.6 2.9-.5 3.5-.4 2.3.5-1.2.9-.5 1 3 .5 3.3-.5 4.1-.3 3 .5-1.1.8-.3.9 3 .4 3.4-.4 4.1-.3 3 .6-1.2.8-.6.9 2.4.4 2.9-.5 3.7-.4 3.1.5-.5.9.3 1 3 .5 2.8-.5 3.6-.4 3 .5-.5.9.3 1.1 3.2.6 2.9-.5 3.5-.4 2.3.5-1.2.9-.5 1 3 .5 3.3-.5 4.1-.3 3 .5-1.1.8-.3.9 3 .4 3.4-.4 4.1-.3 3 .6-1.2.8-.6.9 2.4.4 2.9-.5 3.7-.4 3.1.5-.5.9.3 1 3 .5 2.8-.5 3.6-.4 3 .5-.5.9.3 1 3 .5 2.8-.5 3.6-.4 3 .5-.5.9.3 1.1 3.2.6 2.9-.5 3.5-.4 2.3.5-1.2.9-.5 1 3 .5 3.3-.5 4.1-.3 3 .5-1.1.8-.3.9 3 .4 3.4-.4 4.1-.3 3 .6-1.2.8-.6.9 2.4.4 2.9-.5 3.7-.4 3.1.5-.5.9.3 1 3 .5 2.8-.5 3.6-.4 3 .5-.5.9.3 1.1 3.2.6 2.9-.5 3.5-.4 2.3.5-1.2.9-.5 1 3 .5 3.3-.5 4.1-.3 3 .5-1.1.8-.3.9 3 .4 3.4-.4 4.1-.3 3 .6-1.2.8-.6.9 2.4.4 2.9-.5 3.7-.4 3.1.5-.5.9.3 1 3 .5 2.8-.5 3.6-.4 3 .5-.5.9.3 1 3 .5 2.8-.5 3.6-.4 3 .5-.5.9.3 1.1 3.2.6 2.9-.5 3.5-.4 2.3.5-1.2.9-.5 1 3 .5 3.3-.5 4.1-.3 3 .5-1.1.8-.3.9 3 .4 3.4-.4 4.1-.3 3 .6-1.2.8-.6.9 2.4.4 2.9-.5 3.7-.4 3.1.5-.5.9.3 1 3 .5 2.8-.5 3.6-.4 3 .5-.5.9.3 1.1 3.2.6 2.9-.5 3.5-.4 2.3.5-1.2.9-.5 1 3 .5 3.3-.5 4.1-.3 3 .5-1.1.8-.3.9 3 .4 3.4-.4 4.1-.3 3 .6-1.2.8-.6.9 2.4.4 2.9-.5 3.7-.4 3.1.5-.5.9.3 1 3 .5 2.8-.5 3.6-.4 3 .5-.5.9.3 1 3 .5 2.8-.5 3.6-.4 3 .5-.5.9.3 1.1 3.2.6 2.9-.5 3.5-.4 2.3.5-1.2.9-.5 1 3 .5s4.2-.4 3 .5c-1.2 1-1.1 1.1.8.7 2.2-.5 2.9.8 1.4 2.9-.4.6-5.2 2.3-10.7 3.8-5.5 1.6-10.2 3-10.4 3.2-.2.2 11.9.4 27.1.4h27.5l1.3-4c1.2-3.7 1.1-4.8-1.2-12.3-1.5-4.5-3.8-12.7-5.3-18.2-3.3-12.7-11.8-34.5-23.7-61.6-7.6-17.4-10.3-22.3-14.8-27.7-6-7.1-10.6-10.9-9.4-7.7.4 1-3.5-1.6-8.7-5.7-18.2-14.4-40.7-29.8-59.4-40.5-17.3-9.9-80.5-27.2-147.5-40.2-28.5-5.6-100.3-18.1-102.6-18-1 .1-9.1 1-17.9 2zM413 92.9v5.8l-4.6.7c-7.7 1-8.2.9-9.4-3-.7-1.9-1-3.7-.8-3.8.6-.5 13.3-5.5 14.1-5.6.4 0 .7 2.6.7 5.9zm-31 6c0 5.8-.1 5.9-3.1 6.5-6.6 1.3-9.5.8-10.7-1.9-.7-1.4-1.2-3.1-1.2-3.8 0-1 11.2-6.1 14.3-6.6.4 0 .7 2.5.7 5.8zm-25 1v5.9l-6.5.7c-5.4.5-6.5 1-6.5 2.5 0 1.4-1 2.1-3.7 2.5-2.1.3-5 .8-6.4 1-2.3.3-2.8-.1-4.2-3.5l-1.5-3.8 3.2-1.3c1.7-.7 5.4-2.3 8.2-3.5 7.4-3.3 14.7-6.2 16.2-6.3.8-.1 1.2 1.7 1.2 5.8zm79 2.5c0 3-.4 5.7-.9 6-.4.3-3.4.8-6.5 1.2l-5.6.7-1.6-3.8c-.8-2-1.4-3.8-1.2-3.9 1.1-.7 13.5-5.4 14.6-5.5.8-.1 1.2 1.6 1.2 5.3zm-118 3.5v6l-4.4.6c-4.3.7-4.5.9-4.8 4.4l-.3 3.6-5.9.7c-3.3.4-6.1.6-6.2.5-.2-.2-1-1.9-1.8-3.9l-1.5-3.6 5.2-2c4.4-1.7 5.2-2.3 5-4.3-.2-2.1.6-2.7 6.5-5 3.7-1.5 7-2.7 7.5-2.8.4 0 .7 2.6.7 5.8zm154.8 7.6c-.2.1-3 .5-6.4.9l-6.1.7-1.5-3.8-1.4-3.8 7.5-3.1 7.6-3 .3 5.9c.2 3.3.2 6 0 6.2zm26.2-7.1c0 3-.3 5.7-.7 5.9-.5.3-3.4.8-6.6 1.2l-5.7.7-1.6-3.7c-.8-2-1.4-3.8-1.2-3.9.9-.8 13.5-5.5 14.6-5.6.8 0 1.2 1.7 1.2 5.4zm-96.4 10.4c-.6.6-11.9 2.3-12.3 1.8-.1-.1-.9-1.8-1.7-3.8l-1.5-3.5 7.7-3 7.7-3.1.3 5.5c.2 3.1.1 5.8-.2 6.1zm-27.3 3.2c-.4.4-3.3 1-6.4 1.4l-5.7.6-1.5-3.8c-.8-2-1.4-3.8-1.3-3.9.1-.1 3.5-1.5 7.6-3.1l7.5-2.8.3 5.4c.2 3-.1 5.8-.5 6.2zm-92.8.8c-.3.3-3.1.9-6.2 1.2l-5.6.6-1.4-3.4c-.8-1.9-1.1-3.7-.8-4 .4-.4 3.7-1.9 7.3-3.3l6.7-2.7.3 5.5c.2 3 0 5.8-.3 6.1zm168.2.8c-.2.2-4.4 1-9.3 1.7l-8.9 1.2-.3 5.7c-.3 5.3-.4 5.6-3.4 6.2-1.7.3-4.6.6-6.4.6-3.3 0-3.4.1-3.4 4 0 3.8-.1 3.9-3.7 4.5-2.1.3-5 .8-6.5 1-2.1.3-2.8-.1-3.3-1.6s-1-1.8-1.8-1c-.6.6-2.8 1.1-4.9 1.1H395v5c0 5.3.1 5.5 3 4 1.6-.8 1.8-.4 2.5 4.7.8 6.3.1 7.3-5.4 7.3-4.4 0-8.1 3.5-8.1 7.7 0 3-.3 3.2-4.3 3.8-6.8 1-8.7.4-10.3-3.3l-1.4-3.4 4.1-1.6 4-1.6-.7-6.3c-.4-4.3-.3-6.8.6-7.8.6-.8.9-1.9.5-2.5-.3-.5.5-1.4 1.8-1.9 1.4-.6 3.6-2.2 5-3.7 2.5-2.6 2.5-2.9 1.1-6.2-.8-1.9-1.4-3.8-1.4-4.2 0-.6 12.7-6 14.3-6 .4 0 .7.9.7 2.1 0 1.5.5 1.9 1.5 1.5 1.2-.4 1.5.3 1.5 2.9v3.4l6.6-2.7c7.1-2.9 8.4-4.5 4.2-5-3-.4-4.8-4.3-4.4-9.6.2-2.5 1-3.1 7.7-5.7 4.1-1.6 7.5-2.9 7.6-2.9.1 0 .3.9.5 1.9.3 1.8.6 1.8 6.7-.6 4.4-1.8 6.5-2.3 7-1.5.5.8 2.1.6 5.6-.7l5-1.9.3 5.5c.2 3 .1 5.7-.1 5.9zm20.3-1c0 4.7-.3 5.7-2 6.1-1.6.4-2 1.4-2 4.8 0 4-.2 4.3-3.1 4.9-1.7.3-4.6.6-6.3.6-2.7 0-3.4-.5-4.4-3.3-1.6-4.4-1.6-4.4 1.4-5.1 2.6-.7 2.9-2.3 1-6.6-.5-1.1 1-2.2 6.1-4.2 3.8-1.5 7.4-2.7 8.1-2.7.8-.1 1.2 1.7 1.2 5.5zm20.6 7.1c-.2.2-3 .8-6.1 1.2l-5.7.8-1.6-3.4c-1.9-4.1-1.6-4.5 6.8-7.6l6.5-2.4.3 5.5c.2 3 .1 5.6-.2 5.9zM542 122c0 5.9 0 5.9-3.2 6.4-9.8 1.5-9.8 1.5-11.4-2.2-.8-1.9-1.2-3.8-.8-4.1.6-.6 13.3-5.8 14.7-6 .4-.1.7 2.6.7 5.9zm-26 .9c0 5.8-.1 5.9-3.1 6.5-6.6 1.3-9.5.8-10.7-1.9-.7-1.4-1.2-3.1-1.2-3.8 0-1 11.2-6.2 14.3-6.6.4-.1.7 2.5.7 5.8zm-288 4.5c0 3-.3 5.7-.7 5.9-.5.3-3.4.8-6.6 1.1l-5.7.7-1.6-3.6c-.8-2.1-1.4-3.9-1.2-4 .6-.6 13.3-5.4 14.6-5.4.8-.1 1.2 1.6 1.2 5.3zm96 .6c0 5.2-.3 6-1.9 6-1 0-3.8.3-6.3.6-4 .6-4.5.4-5.6-2-2-4.5-1.5-5.3 5.1-7.9 8.8-3.6 8.7-3.6 8.7 3.3zm126 1.9v5.8l-3.7.7c-8.9 1.4-9.7 1-11.6-5.8-.2-.7 12.4-6.4 14.6-6.5.4-.1.7 2.5.7 5.8zm135 3v5.8l-3.7.7c-7.5 1.2-9.1.8-10.9-2.5-.8-1.7-1.2-3.5-.7-3.9.8-.8 13-5.8 14.6-5.9.4-.1.7 2.5.7 5.8zm-26 1v5.8l-4.6.7c-2.6.3-5.4.6-6.4.6-1.6 0-4-3.8-4-6.4 0-1.1 11.3-6.2 14.3-6.5.4-.1.7 2.5.7 5.8zM376 135c0 5.9-.1 6.1-3 6.6-1.6.4-3 1.2-3 2 0 1.2-1.7 1.7-9.8 2.8-1.7.3-2.7-.4-3.8-2.6-1.7-3.3-1.3-5.8 1-5.8.8 0 1.9-.6 2.3-1.4.6-1 13.2-7 16.1-7.5.1-.1.2 2.6.2 5.9zm115.3 9c-.4.4-3.3 1-6.4 1.4-5.3.6-5.6.5-6.6-2.2-1.1-2.7-1.1-2.7-1.2 1-.1 3.4-.4 3.8-2.8 3.8-1.6 0-4.4.3-6.4.6-3.4.6-3.7.4-5.1-3.2l-1.6-3.9 7.7-3.1c5.7-2.3 7.7-2.7 7.9-1.7.4 1.6-.3 1.8 7.8-1.5l6.9-2.9.3 5.5c.2 3-.1 5.8-.5 6.2zm26.7-6.6c0 3-.3 5.7-.7 5.9-.5.3-3.4.8-6.5 1.2l-5.7.7-1.6-3.7c-.8-2.1-1.4-3.9-1.3-4 1.1-.7 13.6-5.4 14.6-5.5.8 0 1.2 1.7 1.2 5.4zm17 .6c0 5.2-.3 6-1.9 6-1 0-3.9.3-6.3.6-4.5.6-4.6.6-5.8-3-.7-2.1-1-3.9-.8-4.1.7-.7 12.3-5.3 13.6-5.4.8-.1 1.2 1.7 1.2 5.9zm-283.9-.7c2.2-.8 4.3-1.2 4.7-.8.7.7.9 14.2.1 14.9-.2.2-3.2.6-6.5 1-5.7.6-6.2.5-6.7-1.5-.5-1.9-1-2.1-4.6-1.5-3.9.6-4.1.5-5.6-3-.8-2.1-1.3-3.9-1.1-4.1.2-.2 3.7-1.7 7.7-3.3 5.9-2.3 7.5-2.6 7.7-1.5.3 1.2 1 1.2 4.3-.2zm40.5 10.1l3.4-.6v7.6c0 8.4.6 7.8-8.7 9-3.6.5-4.4.3-5.4-1.6-.6-1.2-1.2-3.5-1.3-5.2-.1-2.4-.7-3.2-2.5-3.4-2.2-.3-2.3-.1-1.9 4.3.4 5 .7 4.8-7.9 5.9-4 .6-4.3.4-5.8-2.5-.9-1.7-1.4-3.6-1.2-4.2.3-.7 3.4-2.3 7.1-3.7 6.8-2.5 7.2-2.9 5.6-5.9-.8-1.6.1-2.2 6.8-4.7l7.7-2.9.3 4.3.3 4.3 3.5-.7zm148.4-.5c0 5.8-.1 5.9-3.1 6.5-1.7.3-4.6.6-6.4.6-2.9 0-3.5-.4-4.5-3.6-.7-1.9-1-3.6-.8-3.8.6-.4 13.3-5.4 14.1-5.5.4-.1.7 2.5.7 5.8zm70.6 11.8c-.2.2-3 .8-6.1 1.2l-5.7.8-1.5-3.5c-.8-1.9-1.1-3.8-.6-4.3.4-.4 3.7-1.9 7.3-3.2l6.5-2.4.3 5.5c.2 3 .1 5.6-.2 5.9zm46 0c-.2.3-2.9.8-5.8 1.2-5.3.6-5.3.6-5.6 4.3-.3 3.2-.7 3.8-2.6 3.8-1.3 0-3.8.3-5.5.6-2.7.6-3.1 1.1-3.1 4 0 3.2-.2 3.3-4.7 3.9-2.7.3-5.6.8-6.6 1-1.2.2-2.2-.7-3.2-3.2-.8-1.9-1.3-3.8-1-4.2.2-.4 2.9-1.6 6-2.6 4.8-1.7 5.5-2.3 5.1-4-.4-1.7.5-2.4 6.2-4.6 4.7-1.9 6.7-3.1 6.7-4.4 0-1.2 2.1-2.5 7-4.5l7-2.8.3 5.5c.2 3 .1 5.7-.2 6zm-73.3 9.3c-.4.4-3.3 1-6.4 1.4l-5.5.6-1.3-3.6c-.7-1.9-1.1-3.7-.9-4 .3-.2 3.6-1.7 7.4-3.2l6.9-2.9.3 5.5c.2 3-.1 5.8-.5 6.2zm-24.3-5v5.9l-3.7.6c-2.1.3-5 .8-6.4 1-2.1.3-2.9-.2-4.3-3.2-.9-1.9-1.4-3.8-1.1-4.1.6-.6 13.5-5.9 14.8-6.1.4-.1.7 2.6.7 5.9zm-145 4v5.9l-3.7.6c-2.1.3-5 .8-6.5 1-2.4.4-3 0-4.3-3.2-.9-2-1.2-4-.8-4.4.8-.8 13.1-5.7 14.6-5.8.4-.1.7 2.6.7 5.9zm290 1.4c0 3-.3 5.7-.7 5.9-.5.3-3.4.8-6.5 1.1l-5.7.7-1.6-3.7c-.8-2-1.4-3.8-1.3-3.9 1.1-.7 13.6-5.4 14.6-5.5.8 0 1.2 1.7 1.2 5.4zm-191.1 5.3c.1 1.8-.6 2.3-3.6 2.8-2.1.3-5.1.8-6.6 1-2.5.4-3 0-4.3-3.1-.8-2-1.2-3.9-.9-4.2.4-.4 3.7-1.9 7.3-3.3l6.7-2.7.7 3.7c.4 2 .7 4.6.7 5.8zm95.1-2.8v5.8l-3.7.7c-7.1 1.1-8.9.8-10.1-1.9-.7-1.4-1.2-3.1-1.2-3.8 0-1 11.6-6.4 14.3-6.6.4-.1.7 2.5.7 5.8zm-306.4 10.8c-.2.3-3.1.7-6.5 1l-6 .6-1.5-3.8c-.9-2.1-1.5-3.9-1.4-4.1.2-.1 3.7-1.6 7.8-3.2l7.5-3 .3 6c.2 3.3.1 6.2-.2 6.5zM359 177c.4 0 2.9-.9 5.3-1.9 2.5-1.1 4.8-1.7 5.1-1.4.9.9.7 11.1-.1 11.6-.5.3-3.6.8-6.9 1.2-5.7.6-6.2.5-6.7-1.5s-1-2.1-5.5-1.5l-5 .7-1.2-3.7c-.7-2-.9-3.9-.5-4.3.3-.4 3.7-1.8 7.3-3.3l6.7-2.5.3 3.3c.2 1.8.7 3.3 1.2 3.3zm-114 1c0 6.6.4 6.2-8.7 7.4-2.8.4-4.3.2-4.6-.7-.3-.6-.6 0-.6 1.4-.1 2.2-.7 2.7-3.8 3.3-8.1 1.3-9.8.9-11.1-2.7-.7-1.8-1.2-3.6-1.2-3.9 0-.8 12.2-5.6 15.8-6.3 1.7-.3 4.9-1.4 7.3-2.4 6.7-3 6.9-2.9 6.9 3.9zm233-.1v5.8l-3.7.7c-8.8 1.4-9.9.9-11.6-5.9-.2-.7 12.1-6.2 14.6-6.4.4-.1.7 2.5.7 5.8zm-180-.9c0 4.1.8 4.7 4.1 3 1.8-1 1.9-.7 1.9 5.3 0 6.4 0 6.5-3.1 7.1-1.7.3-4.7.6-6.6.6-2.9 0-3.6-.5-4.4-3-.7-2-1.8-3-3-3-1.3 0-2.5-1.2-3.5-3.6-.8-2-1.3-3.8-1.1-4 .5-.5 14-6.2 15-6.3.4-.1.7 1.7.7 3.9zm153.8 8.5c-.2.1-3 .5-6.3.9l-6.1.7-1.3-3.6c-.7-2-1.1-3.8-.9-4.1.3-.2 3.6-1.7 7.4-3.2l6.9-2.9.3 6c.2 3.3.2 6 0 6.2zm-172.8.9v6.3l-5.2.7c-2.9.3-6 .6-6.8.6-1.7 0-4.7-6.7-3.5-7.8.7-.7 13.3-5.9 14.8-6.1.4-.1.7 2.8.7 6.3zm127-.5v5.8l-3.7.7c-7.8 1.2-9 .9-10.6-3.2l-1.5-3.7 6.7-2.7c3.6-1.5 7.2-2.7 7.9-2.7.8-.1 1.2 1.7 1.2 5.8zm121 0v5.8l-4.6.7c-7.7 1-8.2.9-9.4-3-.7-1.9-1-3.7-.8-3.9.7-.7 12.3-5.3 13.6-5.4.8-.1 1.2 1.7 1.2 5.8zM339 187c0 6.7.2 6.5-7.7 7.4-5.5.7-5.3.8-7.5-6.8-.3-.7 11.9-6.2 14.5-6.5.4-.1.7 2.6.7 5.9zm263 4.9v5.8l-3.7.7c-7.1 1.1-8.9.8-10.1-1.9-.7-1.4-1.2-3.1-1.2-3.8 0-1 11.6-6.4 14.3-6.6.4-.1.7 2.5.7 5.8zm-32.7 7.1c-.4.4-3.3 1-6.4 1.4l-5.5.6-1.3-3.6c-.7-1.9-1-3.8-.7-4.2.4-.3 3.7-1.7 7.4-3.2l6.7-2.6.3 5.5c.2 2.9-.1 5.7-.5 6.1zm-24.3-5v5.9l-3.7.6c-2.1.3-5 .8-6.4 1-2.1.3-2.9-.2-4.3-3.2-.9-1.9-1.4-3.8-1.1-4.2.7-.6 13.4-5.8 14.8-6 .4-.1.7 2.6.7 5.9zm-117.2 11.6c-.2.1-3.3.6-6.8 1l-6.5.6-1.3-3.7c-.8-2-1.2-3.9-.9-4.1.2-.3 3.8-1.8 7.8-3.3l7.4-2.9.3 6c.2 3.3.2 6.2 0 6.4zM465 201c0 6.6.4 6.2-8.7 7.4-4.4.6-4.4.6-6.5-6.8-.3-.7 11.9-6.2 14.5-6.5.4-.1.7 2.6.7 5.9zm-138 2.4v6.4l-6.5.7c-3.6.4-6.8.6-7 .3-.2-.2-1.1-2-1.9-4l-1.6-3.6 7.8-3.1c4.2-1.6 8-3 8.5-3 .4-.1.7 2.8.7 6.3zm176-.5v5.8l-3.7.7c-7.8 1.2-9 .9-10.3-3-.7-1.9-1-3.7-.8-3.9.7-.7 12.3-5.3 13.6-5.4.8-.1 1.2 1.7 1.2 5.8zm61 2.1c0 2.3 0 2.3 3.4 1l2.6-1v6.1c0 6.6.2 6.5-7.7 7.3-4.2.4-5.3.2-5.3-.9 0-1-1-1.5-3-1.5-2.5 0-3.2-.6-4.5-3.7-.8-2-1.4-3.7-1.3-3.8 1.4-.8 13.6-5.3 14.6-5.4.6-.1 1.2.8 1.2 1.9zm56 10v5.9l-3.7.6c-2.1.3-5 .8-6.5 1-2.4.4-3 0-4.3-3.2-.9-2-1.2-4-.8-4.4.8-.8 13.1-5.7 14.6-5.8.4-.1.7 2.6.7 5.9zm-206 4c0 6.7.2 6.5-7.8 7.5-4.8.5-5.3.4-6.1-1.7-2.4-6.5-2.6-6.2 4.7-9 9.4-3.6 9.2-3.7 9.2 3.2z"/><path d="M425.7 124c-.3 1.2 0 2 .8 2s1.1-.8.8-2c-.3-1.1-.7-2-.8-2-.1 0-.5.9-.8 2zM27.3 307.4c-4 2.3-8.4 5.3-9.8 6.6l-2.5 2.3 7.7 3.4c4.3 1.8 9.4 3.6 11.4 3.9 6.4 1.1 6.5 1.5 3.3 9-1.6 3.8-4.5 8.9-6.5 11.4-5 6.3-5.6 7.7-6.4 14.1l-.7 5.6 11.6-2.1c6.3-1.2 11.9-2.6 12.5-3.1.5-.6 3.1-4.6 5.8-9.1 3.5-5.8 5.4-10.4 6.8-16.3l1.9-8.2-4.4-8.8-4.3-8.8-8.1-1.7c-4.4-1-8.8-1.9-9.6-2.1-.8-.2-4.7 1.5-8.7 3.9zM188.4 319.6c2.5 3.3 6.5 8.2 8.7 11.1l4 5.1-1 9.9c-.6 5.4-2 15-3.2 21.4l-2.2 11.5 6.2 9.3c3.5 5.1 6.6 8.9 7.1 8.5.4-.5 2.2-4.9 4-9.7 1.8-4.8 3.7-9 4.2-9.3.4-.3 4 1.8 7.9 4.6l7.1 5.2 5.4-5.3c3.9-3.8 5.6-5 6.6-4.2.7.5 4.9 3.8 9.3 7.3s8.6 6.8 9.3 7.4c1.4 1 .5-1.1-10.9-26.4-6.8-15.1-7.3-15.8-17.7-27.4-10.2-11.3-11.1-12-21.2-17.1-6.2-3.1-12.5-5.5-15.5-5.9-2.7-.4-6.8-.9-8.9-1.2l-3.9-.6 4.7 5.8zM755.5 315.1c-6 .4-14.7 1.3-19.1 1.9-5.9.8-9.2.9-12 .1-3.2-.9-5-.7-10.7 1.1-6.3 2.1-6.7 2.4-6.3 4.8.3 1.4.8 4.3 1.1 6.5l.6 4 13 2.3 13 2.2 6.2-3.1c6.6-3.3 33.7-19.8 33.7-20.5 0-.5-5.7-.3-19.5.7zM430.3 324.2c-2.9 7-3 7.6-2 14.6l1 7.3 6.6 5.6c3.6 3.1 9.9 9.4 14 14l7.4 8.5 6.7-.7c3.7-.4 7.5-.7 8.5-.8 1.4-.2 2.6 2.3 6 12.2l4.1 12.5 6.5 4.4 6.4 4.3 8-.6c11.7-.9 11.5-.8 11.5-6.8 0-2.9 1-9.6 2.2-15l2.2-9.8-4.2-8.4-4.2-8.4 3.2-8.6 3.1-8.6 3.6.5c8.6 1.3 15.1 1.8 15.1 1.2 0-.4-3.4-5-7.5-10.2L521 322h-24l-8.9 4.5c-4.9 2.4-12.9 5.4-17.7 6.6l-8.7 2.2-3.6-4.3c-2-2.4-4.3-5.3-5.3-6.4l-1.6-2.1-4.4 2.1-4.3 2.1-3.8-4.8c-2.1-2.7-4.2-4.9-4.6-4.9-.5 0-2.2 3.3-3.8 7.2zM575.8 321.7c-1.6.2-2.8.8-2.8 1.2 0 .4 1.3 4.5 2.9 9.2 1.5 4.6 3.3 11.6 4 15.4 1.3 7.5 2.9 13.5 3.8 13.5.2 0 3.6-1.8 7.5-4.1 6.2-3.6 7.3-4.7 9.4-9.5l2.4-5.5-3.4-6.7c-2.9-5.8-4.3-7.2-9.5-10.5-5.9-3.6-7.8-4-14.3-3z"/><path d="M230 323.4c0 .2 6.5 5.4 14.4 11.6l14.3 11.3 1.1 10.8c1 10 1.5 11.6 6.3 21.1 2.8 5.7 7.6 13.8 10.6 18.1 4.7 6.6 5.4 8.2 4.9 11-.5 2.3.3 1.4 3-3.8 2-3.9 3.8-7.2 4-7.4.3-.3 3.3 2.3 6.7 5.7l6.3 6.2 7.6-7.8c7.6-7.6 7.7-7.8 8.4-14 .3-3.4 1-6.2 1.4-6.2.4 0 3.2 3.8 6.4 8.5 3.1 4.7 5.9 8.5 6.4 8.5.4 0 2.5-1.1 4.7-2.5 2.2-1.3 4.5-2.5 5.1-2.5 1.1 0 19.9 23.9 19.2 24.5-.2.2-6.4-.3-13.8-1.1-7.4-.7-15.5-1.4-18-1.4-2.5.1-13 2.3-23.5 5l-19 4.9-5-3.3c-2.8-1.8-11.8-5.5-20.3-8.4l-15.3-5.1-1.7 2.8c-.9 1.6-3.5 6.3-5.7 10.5-2.2 4.1-4.2 7.6-4.5 7.6-.3 0-2.3-5-4.5-11.1s-4.7-11.5-5.6-12c-1.4-.7-3.1.8-8.6 7.3l-6.9 8.3-4.4-.3c-2.5-.2-16.4-1.2-31-2.3-14.6-1-28.5-1.9-30.8-1.9-3.8 0-5.8-1-15.2-7.5-6-4.1-11.3-7.5-11.9-7.5-.6 0-6.5 2.9-13.2 6.5-14.8 7.9-14.4 8-25.9-5.8-4.5-5.4-8.7-9.6-9.4-9.4-.6.3-5.2 2.2-10.2 4.2l-9.1 3.7-6.5-4.1-6.6-4.1 1.4-7.3c1.9-9.8 1.9-9.7-2.1-9.7-3.3 0-3.5.2-3.6 3.2 0 1.8-.6 12.1-1.3 22.8-.8 12.3-1 19.9-.4 20.7.6.7 14.1 10.4 30.1 21.5l29.2 20.3 12.5.7c6.9.3 20.3.6 29.7.7 9.5.1 27.3.8 39.5 1.7 12.3.9 33 2.3 46.1 3.3l23.7 1.6 3.7-3.7c2.1-2.2 4.7-3.8 5.9-3.8 1.3 0 14.8 1.7 30.1 3.8l27.8 3.9 28.5-.7c15.7-.4 56.4-.4 90.5-.2 53.9.4 64.5.3 80.6-1.3 11.2-1 20.9-1.4 24.5-1 3.2.4 48.7.9 101.1 1.1l95.1.4 13.7-3.6c9.3-2.4 14-3.2 14.4-2.5.4.6 4.3 2.6 8.6 4.5 8.7 3.8 8.3 3.2 9.9 14.7l.7 4.6-7.5 3.2c-6.7 3-10.8 3.7-39.3 7.6-29.9 4.1-31.3 4.3-22.8 4.6l9 .2-10.5.8c-5.8.4-15.4.6-21.5.4-6-.2-36-.7-66.5-1.1l-55.5-.6-19 6.6c-10.4 3.6-19.4 6.6-20 6.6-1.4-.1 11.1-5.5 28.6-12.4l14.6-5.8-1.8-9.7c-1-5.3-1.8-10.3-1.9-11.3 0-1.3-1.6-1.8-8.5-2.3-4.7-.4-8.8-.5-9.1-.2-.3.3.3 4.4 1.3 9.2l1.8 8.8-3.1 2.6c-1.7 1.4-6.6 5.7-10.8 9.5l-7.6 6.8-23.2 5.9c-29.2 7.4-34.7 8.2-70 11l-28.7 2.3-49.8-3.8c-27.4-2-58.3-4.6-68.8-5.7-21.9-2.3-19-.9-36.5-17.6-9.1-8.7-11.3-11.3-10.4-12.4 1.3-1.6 4.7-14.9 4-15.6-.6-.6-27.5-4.3-31.1-4.2-2.2.1-1.4.6 3.5 2 11.2 3.4 11.1 2.4 1.1 12.3l-9 8.9-25.8 1.7-25.8 1.7 27.2.2c26.1.1 27.7 0 38.3-2.5 6.1-1.4 11.3-2.4 11.6-2.1.2.2-3.4 1.9-8.1 3.7l-8.5 3.3-27.8-.7c-49.7-1.3-68.3-2.4-81.7-4.5-7.1-1.2-18.8-3.1-26-4.2-7.1-1.1-14.6-2.5-16.5-3.2-1.9-.6-3.9-1-4.5-.8-.5.1-.7 0-.3-.4.3-.4-1.1-2.3-3.3-4.2-4.6-4.2-12.2-14-15.2-19.8-1.2-2.2-3.5-9.4-5.3-16l-3.1-12-1.7 7.2c-2 8.8-2 10.5-.1 24 2.4 16.5 1.4 14.9 10.7 17.1 9.4 2.3 7.8 2.7-2.9.8l-7.2-1.3.6 6.1c.3 3.4.7 6.7.7 7.5.1 1-3.6 2.9-10.3 5.6-5.8 2.3-10.6 4.6-10.9 5.3-.2.7.4 10.3 1.3 21.4 1.6 19.9 1.7 20.3 4.6 23.5 1.6 1.9 2.9 3.5 2.9 3.7 0 .2-1.1.1-2.5-.2-1.4-.2-2.5-.2-2.5.2 0 1.2 7 52.1 8.1 58.8l1.1 6.7 19.6 23.2c10.8 12.7 21.5 25.2 23.9 27.8l4.3 4.6-1.9-4.5c-1-2.5-7.8-16.6-15-31.4L40 613.8l4.5-17.1c2.5-9.4 4.8-17.3 5-17.6.5-.5 62.5 9.2 71.5 11.2l5.5 1.2-10 .5-10 .5 46.5 10.8c28.2 6.5 53.2 11.7 63.5 13.2 9.4 1.3 37.7 5.6 63 9.4 27.2 4.1 51.4 7.2 59.2 7.7l13.3.7.3 51.6.2 51.6.3-51.8c.1-33.6.5-51.7 1.2-51.7s1 17.8 1 51.4v51.4l19.3.6c46.8 1.5 130.5.7 153.7-1.3 42.9-3.9 59.5-6.4 106-16.2 32.6-6.9 58.5-16 75.1-26.5 2.1-1.3 5.9-2.9 8.6-3.5 18.2-4.5 33.2-17.9 40.3-36.1 6.8-17.6 10.2-44.8 8.2-65.6-.7-6.6-1.5-12.7-1.8-13.5-.3-.9.2-1.7 1.3-2.1 1.1-.3 6.9-7.9 12.9-16.9l11-16.2-1.7-15.3-1.8-15.2-3.9-4.8c-2.2-2.6-5.1-6.5-6.6-8.6-2.3-3.4-2.4-4-1-5 1-.8 2.7-6.8 4.8-16.8l3.3-15.6-4.1.5c-2.3.2-5.7.6-7.6.8-5.1.6-1.7-1 5.3-2.6 5.9-1.3 5.9-1.3 11.6-9.8 3.1-4.7 6.7-10.2 7.9-12.2l2.2-3.7-2.4-7.8c-1.3-4.4-3.8-12.5-5.6-18.2-1.7-5.6-3.5-10.2-3.9-10.2-1.8 0-10.3 8.5-12 11.9-1 2-3.1 7.3-4.6 11.9l-2.7 8.3-3.6-.7c-4.8-.8-13.4-3.7-20.2-6.7l-5.5-2.5-17 8.6-17 8.5-16.5-3.2c-9.1-1.7-17.4-3.1-18.3-3.1-1 0-5 2.2-9 4.8l-7.2 4.8-17-3.2c-9.3-1.8-17.5-3.3-18.1-3.4-.6 0-9.1 8.4-18.9 18.7-9.8 10.4-18.6 18.9-19.6 19.1-2.5.5-8.4-2.8-16.9-9.4-16.3-12.6-18.6-15-28.6-31.5l-9.6-15.7-8.4 3.4-8.4 3.4-12.6-2.5c-7-1.3-12.9-2.6-13.1-2.8-.2-.2-3.7-5.2-7.7-11.1-4.1-5.9-7.6-10.4-7.9-9.9-.3.4-2.1 4.8-4.2 9.8-2 4.9-3.8 9.1-4 9.3-.1.1-9.6-4.3-21.1-9.8l-20.9-10.1-5.5 6.3c-3 3.5-7.6 8.5-10.2 11.2-2.7 2.7-4.8 5.2-4.8 5.6 0 .7-25.4 21.2-26.6 21.4-1.7.2-4.6-14.9-5.8-30.9l-1.3-17-7.3-15.8c-4-8.7-7.1-15.9-6.9-16 .2-.1 3.1-1.6 6.3-3.2 5.7-2.8 6.1-3.4 8.9-9.9 1.5-3.7 2.6-7 2.4-7.3-.3-.2-3.9.5-7.9 1.6-4.7 1.3-10.4 2.1-15.3 2.1h-8l-8.6-8.6-8.7-8.7-13.9 2.1-13.8 2.1-20-1.9c-17.9-1.7-38.5-2.6-38.5-1.6z"/><path d="M763.1 331.5c-10.2 7.5-12.1 9.4-18.3 18.4-3.8 5.6-7.3 10.1-7.7 10.1-.7 0-8-8-13.1-14.3-1.5-1.9-1.9-1.8-11.9 3.3-5.7 2.8-10.5 4.9-10.8 4.6-.3-.3-1.8-5.1-3.4-10.7-1.5-5.6-3-10.3-3.3-10.6-.2-.3-1.9 4.1-3.6 9.7l-3.1 10.1-2.7-1.7c-1.5-.9-4.2-2.8-6.1-4-1.9-1.3-3.6-2.2-3.8-2-.2.1.2 5 .8 10.7 1 9.5 1.4 10.9 5 16.5 2.1 3.3 3.9 6.4 3.9 6.9s-2.6 4.8-5.7 9.7l-5.8 8.8h-12.4c-10.7 0-13.9.4-24 3.2-6.4 1.7-12.1 3.5-12.7 3.9-1.3 1-6.9 21.7-6.2 22.5.3.3 5.5-2.7 11.5-6.6l11-7h14.8c11.4 0 16.7.5 23.5 2.1l8.8 2 6.9-4.4c4.7-3.1 9.1-5 14.3-6.2 4.1-1 8-2.2 8.6-2.6.6-.5 1.9-4.5 2.9-8.9l1.8-8 5.6.6c14.4 1.6 12.5.3 23.1 16.7 7 10.9 9.6 14.3 10.1 13 .3-1 1.4-6.3 2.3-11.9l1.7-10-4-10.3c-2.3-5.6-3.9-10.6-3.7-11 .3-.4 2.3-1.4 4.6-2.1 2.2-.7 4.4-1.8 4.9-2.4.4-.6 2.2-5.2 3.8-10.2 3-8.9 3-9.1 1.2-11.5-2.4-3.2-2.4-3.9 1-15.2 1.6-5.4 2.6-9.7 2.3-9.7-.4.1-5.8 3.9-12.1 8.5zM162.7 330.1l-8.8 3.1-4.2 8.4-4.1 8.4h-12.5l-4.5 5.6-4.6 5.6V380.5l5.4 3.3 5.4 3.2-2.1 8.1c-1.6 6.5-1.7 8.3-.7 8.9.7.4 5.1 1.1 9.7 1.5l8.4.7 5.7-4.9c9.8-8.3 8.5-8.2 13.2-1.4 2.2 3.4 4.3 6.1 4.6 6.1.3 0 3.2-1.8 6.6-4.1 3.3-2.3 6.3-3.7 6.7-3.3.4.5 3.1 3.7 6.1 7.2 2.9 3.4 5.5 6 5.7 5.8.3-.2-.5-6.8-1.6-14.6-1.8-11.9-2.6-15.2-5.2-19.7l-3.1-5.4 3.1-8.6c4.4-11.9 4.3-19.4-.1-26.9-3-4.9-3.8-5.5-8.8-7-8.9-2.6-11-2.5-20.3.7zM72.8 339.8l-6.5 6.7-1.8 11-1.8 11-6.4 6-6.3 6 18.5-1c10.1-.6 18.8-1.5 19.3-2 .5-.6 2.2-4.7 3.7-9.3 1.4-4.5 2.8-8.2 3.1-8.2.2 0 3.1 4.1 6.5 9.1 5.5 8.2 6.2 8.9 7.3 7.2.7-1 3.6-5.8 6.5-10.6l5.3-8.8-3.4-9.7-3.3-9.7-14-1.7c-7.7-.9-15.4-1.9-17.1-2.2-2.8-.4-3.8.3-9.6 6.2zM541 335.8c0 .2 2.7 3.6 6.1 7.5 6 6.9 6.1 7.1 5.4 11.6-1.1 7.7-1.4 8.3-4.3 7.7-1.5-.2-4.8-.8-7.5-1.1l-4.8-.6.3 15.2.3 15.3 12.5 3.8c6.9 2.1 13.1 4 13.7 4.3.8.3 0 2.7-2.7 7.3-2.2 3.8-4 7.5-4 8.3 0 1.5 9.8 35 10.3 35.6.2.1 3.6-6.8 7.5-15.5 3.9-8.6 8.7-19.1 10.6-23.3l3.5-7.7 9.1 2c5 1.1 9.4 1.8 9.7 1.5.3-.3 1.4-7.9 2.5-16.9l2-16.3 7.7-7.8c4.2-4.3 6.9-7.7 6.1-7.5-.8.2-6.7 1.6-13 3.2l-11.6 2.9-5.3 7.5-5.4 7.4-12.7-12.7-12.8-12.8-.7-7.7c-.4-4.2-1-8.1-1.3-8.7-.6-1-21.2-3.4-21.2-2.5zM379 336.8c0 .4 1.3 4.1 2.9 8.2l2.8 7.4-2.8 8.6c-1.6 4.7-3.1 9-3.3 9.7-.3.8-3.3.2-9.7-1.8-5.1-1.6-9.8-2.9-10.4-2.9-.5 0 1.8 1.9 5.3 4.2 5.1 3.3 6.2 4.6 5.8 6.2-.2 1.2-.8 6.6-1.1 12.1-.7 10.1-.1 14 4.7 29.3l1 3.3 6.9-8.8c3.8-4.8 10.4-14.2 14.6-20.8 4.1-6.6 7.8-12.2 8-12.5.2-.2 1.2.1 2.1.7 22.7 14.6 29.6 18.6 36.7 21.2l8.4 3.2 4.3-3.1c3.3-2.4 4.6-4.1 5.4-7.6l1.2-4.4-15.7-12.4c-11-8.7-18.8-16-26.5-24.5-6-6.7-11.9-12.3-13-12.6-3.6-.8-23.6-3.5-25.6-3.5-1.1 0-2 .3-2 .8z"/><path d="M635 339.9c-2.5 1-4.5 2.3-4.5 2.7.1.5.4 5 .9 10.1l.8 9.1-4.1 7.1c-7.2 12.3-10.4 20.8-9.6 25.8.7 5.1 1.4 5.2 9.2 1.8 10.8-4.8 15.1-8.4 18.8-15.6l3.4-6.6-1.4-9.4c-1.4-9.6-6.4-26.1-8.1-26.5-.5-.2-2.9.5-5.4 1.5zM535.7 408.2c-.4 2.4-.9 6.3-1.2 8.8l-.6 4.5 7.6 7.5 7.7 7.5-.8-8c-.9-9.8-.9-9.5.1-17.8l.7-6.7h-13l-.5 4.2zM589.5 420.3c-2.2 2.8-4.8 6.9-5.8 9.2-3.8 8.3-10.8 26.7-10.4 27.1 1.2 1.3 11-4.1 19.4-10.6 8.9-6.8 9.8-7.8 12.9-14.7 1.9-4.1 3.4-7.6 3.4-7.8 0-.6-13.7-8.5-14.7-8.5-.4.1-2.6 2.4-4.8 5.3zM690.3 503.7c.9.2 2.5.2 3.5 0 .9-.3.1-.5-1.8-.5-1.9 0-2.7.2-1.7.5z"/></svg>